<!DOCTYPE svg PUBLIC "-//W3C//DTD SVG 1.1//EN" "http://www.w3.org/Graphics/SVG/1.1/DTD/svg11.dtd">

<!-- Uploaded to: SVG Repo, www.svgrepo.com, Transformed by: SVG Repo Mixer Tools -->
<svg width="28px" height="28px" viewBox="0 0 24 24" id="Layer_1" data-name="Layer 1" xmlns="http://www.w3.org/2000/svg" fill="#000000">

<g id="SVGRepo_bgCarrier" stroke-width="0"/>

<g id="SVGRepo_tracerCarrier" stroke-linecap="round" stroke-linejoin="round"/>

<g id="SVGRepo_iconCarrier">

<defs>

<style>.cls-1{fill:none;stroke:#376D79;stroke-miterlimit:10;stroke-width:1.92px;}</style>

</defs>

<line class="cls-1" x1="12" y1="0.47" x2="12" y2="2.39"/>

<line class="cls-1" x1="23.5" y1="11.97" x2="21.58" y2="11.97"/>

<line class="cls-1" x1="2.42" y1="11.97" x2="0.5" y2="11.97"/>

<line class="cls-1" x1="12" y1="0.47" x2="12" y2="2.39"/>

<line class="cls-1" x1="23.5" y1="11.97" x2="21.58" y2="11.97"/>

<line class="cls-1" x1="2.42" y1="11.97" x2="0.5" y2="11.97"/>

<line class="cls-1" x1="20.13" y1="3.84" x2="18.78" y2="5.19"/>

<line class="cls-1" x1="5.22" y1="5.19" x2="3.87" y2="3.84"/>

<line class="cls-1" x1="20.13" y1="3.84" x2="18.78" y2="5.19"/>

<line class="cls-1" x1="5.22" y1="5.19" x2="3.87" y2="3.84"/>

<path class="cls-1" d="M16,17s1-1,1-1a5.58,5.58,0,0,0,1.71-4A6.71,6.71,0,1,0,5.29,12,6.57,6.57,0,0,0,7,16.38"/>

<path class="cls-1" d="M.5,16.28c1.44,0,1.44,1,2.87,1s1.44-1,2.88-1,1.43,1,2.87,1,1.44-1,2.87-1,1.44,1,2.88,1,1.43-1,2.87-1,1.44,1,2.88,1,1.44-1,2.88-1"/>

<path class="cls-1" d="M3.37,22c1.44,0,1.44-1,2.88-1s1.43,1,2.87,1,1.44-1,2.87-1,1.44,1,2.88,1,1.43-1,2.87-1,1.44,1,2.88,1"/>

</g>

</svg>