<!DOCTYPE svg PUBLIC "-//W3C//DTD SVG 1.1//EN" "http://www.w3.org/Graphics/SVG/1.1/DTD/svg11.dtd">

<!-- Uploaded to: SVG Repo, www.svgrepo.com, Transformed by: SVG Repo Mixer Tools -->
<svg width="32px" height="32px" viewBox="0 0 32 32" id="Layer_1" data-name="Layer 1" xmlns="http://www.w3.org/2000/svg" fill="#376D79">

<g id="SVGRepo_bgCarrier" stroke-width="0"/>

<g id="SVGRepo_tracerCarrier" stroke-linecap="round" stroke-linejoin="round"/>

<g id="SVGRepo_iconCarrier">

<defs>

<style>.cls-1{fill:none;stroke:#020202;stroke-miterlimit:10;stroke-width:1.92px;}</style>

</defs>

<path class="cls-1" d="M.5,3.4c1.92,0,1.92.95,3.83.95S6.25,3.4,8.16,3.4s1.92.95,3.83.95,1.92-.95,3.83-.95,1.92.95,3.84.95,1.92-.95,3.84-.95"/>

<path class="cls-1" d="M.5,9.15c1.92,0,1.92.95,3.83.95s1.92-.95,3.83-.95,1.92.95,3.83.95,1.92-.95,3.83-.95,1.92.95,3.84.95,1.92-.95,3.84-.95"/>

<path class="cls-1" d="M.5,14.9c1.92,0,1.92.95,3.83.95s1.92-.95,3.83-.95,1.92.95,3.83.95,1.92-.95,3.83-.95,1.92.95,3.84.95,1.92-.95,3.84-.95"/>

<path class="cls-1" d="M.5,20.65c1.92,0,1.92,1,3.83,1s1.92-1,3.83-1,1.92,1,3.83,1,1.92-1,3.83-1,1.92,1,3.84,1,1.92-1,3.84-1"/>

</g>

</svg>